{
  "accessors": [
    {
      "bufferView": 1,
      "componentType": 5126,
      "count": 1986,
      "max": [
        0.9904158711433411,
        0.9904149770736694,
        0.9989992380142212
      ],
      "min": [
        -0.9904154539108276,
        -0.9904160499572754,
        -0.9989992380142212
      ],
      "type": "VEC3"
    },
    {
      "bufferView": 1,
      "byteOffset": 23832,
      "componentType": 5126,
      "count": 1986,
      "max": [
        1.0,
        1.0,
        1.0
      ],
      "min": [
        -1.0,
        -1.0,
        -1.0
      ],
      "type": "VEC3"
    },
    {
      "bufferView": 0,
      "componentType": 5125,
      "count": 11904,
      "type": "SCALAR"
    },
    {
      "bufferView": 1,
      "byteOffset": 47664,
      "componentType": 5126,
      "count": 51840,
      "max": [
        1.0016411542892456,
        1.0016403198242188,
        1.0052273273468018
      ],
      "min": [
        -1.001640796661377,
        -1.0016412734985352,
        -1.0052273273468018
      ],
      "type": "VEC3"
    },
    {
      "bufferView": 1,
      "byteOffset": 669744,
      "componentType": 5126,
      "count": 51840,
      "max": [
        0.9970706105232239,
        0.9970706701278687,
        0.9994224905967712
      ],
      "min": [
        -0.9970705509185791,
        -0.9970705509185791,
        -0.9994227290153503
      ],
      "type": "VEC3"
    },
    {
      "bufferView": 0,
      "byteOffset": 47616,
      "componentType": 5125,
      "count": 77760,
      "type": "SCALAR"
    }
  ],
  "asset": {
    "extras": {
      "author": "3DMish (https://sketchfab.com/3dmish)",
      "license": "CC-BY-4.0 (http://creativecommons.org/licenses/by/4.0/)",
      "source": "https://sketchfab.com/3d-models/beautiful-sphere-f7340c6b9dad4b88b84e097bcd53bcd8",
      "title": "Beautiful sphere"
    },
    "generator": "Sketchfab-12.68.0",
    "version": "2.0"
  },
  "bufferViews": [
    {
      "buffer": 0,
      "byteLength": 358656,
      "name": "floatBufferViews",
      "target": 34963
    },
    {
      "buffer": 0,
      "byteLength": 1291824,
      "byteOffset": 358656,
      "byteStride": 12,
      "name": "floatBufferViews",
      "target": 34962
    }
  ],
  "buffers": [
    {
      "byteLength": 1650480,
      "uri": "scene.bin"
    }
  ],
  "materials": [
    {
      "alphaMode": "BLEND",
      "doubleSided": true,
      "name": "3DM.GlassReal",
      "pbrMetallicRoughness": {
        "baseColorFactor": [
          0.22088414634146344,
          0.22088414634146344,
          0.22088414634146344,
          0.4738948170731707
        ],
        "metallicFactor": 0.1053734756097561
      }
    },
    {
      "doubleSided": true,
      "name": "3DM.Gold",
      "pbrMetallicRoughness": {
        "baseColorFactor": [
          1.0,
          0.5775804404296504,
          0.1844749945004409,
          1.0
        ],
        "roughnessFactor": 0.12976371951219512
      }
    }
  ],
  "meshes": [
    {
      "name": "Sphere.001_3DM.Glass(Real)_0",
      "primitives": [
        {
          "attributes": {
            "NORMAL": 1,
            "POSITION": 0
          },
          "indices": 2,
          "material": 0,
          "mode": 4
        }
      ]
    },
    {
      "name": "Sphere_3DM.Gold_0",
      "primitives": [
        {
          "attributes": {
            "NORMAL": 4,
            "POSITION": 3
          },
          "indices": 5,
          "material": 1,
          "mode": 4
        }
      ]
    }
  ],
  "nodes": [
    {
      "children": [
        1
      ],
      "matrix": [
        1.0,
        0.0,
        0.0,
        0.0,
        0.0,
        2.220446049250313e-16,
        -1.0,
        0.0,
        0.0,
        1.0,
        2.220446049250313e-16,
        0.0,
        0.0,
        0.0,
        0.0,
        1.0
      ],
      "name": "Sketchfab_model"
    },
    {
      "children": [
        2
      ],
      "matrix": [
        1.0,
        0.0,
        0.0,
        0.0,
        0.0,
        0.0,
        1.0,
        0.0,
        0.0,
        -1.0,
        0.0,
        0.0,
        0.0,
        0.0,
        0.0,
        1.0
      ],
      "name": "90bed0915d0a451092885cf9940ddc3a.fbx"
    },
    {
      "children": [
        3,
        5,
        7,
        10
      ],
      "name": "RootNode"
    },
    {
      "children": [
        4
      ],
      "matrix": [
        97.64044952392578,
        0.0,
        0.0,
        0.0,
        0.0,
        -4.267999775076236e-06,
        -97.64044952392568,
        0.0,
        0.0,
        97.64044952392568,
        -4.267999775076236e-06,
        0.0,
        0.0,
        0.0,
        0.0,
        1.0
      ],
      "name": "Sphere.001"
    },
    {
      "mesh": 0,
      "name": "Sphere.001_3DM.Glass(Real)_0"
    },
    {
      "children": [
        6
      ],
      "matrix": [
        100.0,
        0.0,
        0.0,
        0.0,
        0.0,
        -4.371139006309477e-06,
        -99.9999999999999,
        0.0,
        0.0,
        99.9999999999999,
        -4.371139006309477e-06,
        0.0,
        0.0,
        0.0,
        0.0,
        1.0
      ],
      "name": "Sphere"
    },
    {
      "mesh": 1,
      "name": "Sphere_3DM.Gold_0"
    },
    {
      "children": [
        8
      ],
      "matrix": [
        -29.086466012969506,
        -5.518904334943286,
        -95.51712263095594,
        0.0,
        56.63931168888501,
        79.46723477095061,
        -21.83911557888623,
        0.0,
        77.110090100962,
        -60.45246312143063,
        -19.988339280030054,
        0.0,
        407.6245422363281,
        590.38623046875,
        -100.54539489746094,
        1.0
      ],
      "name": "Lamp"
    },
    {
      "children": [
        9
      ],
      "matrix": [
        1.0,
        0.0,
        0.0,
        0.0,
        0.0,
        2.220446049250313e-16,
        1.0,
        0.0,
        0.0,
        -1.0,
        2.220446049250313e-16,
        0.0,
        0.0,
        0.0,
        0.0,
        1.0
      ],
      "name": "Object_8"
    },
    {
      "name": "Object_9"
    },
    {
      "children": [
        11
      ],
      "matrix": [
        -65.15583014926676,
        -44.52713964929873,
        -61.41703047373549,
        0.0,
        -32.401348759389705,
        89.53957258106574,
        -30.542086805773785,
        0.0,
        68.59205375566498,
        -3.961755287995837e-06,
        -72.76763453418769,
        0.0,
        748.1131591796875,
        534.3665161132813,
        650.7639770507813,
        1.0
      ],
      "name": "Camera"
    },
    {
      "name": "Object_11"
    }
  ],
  "scene": 0,
  "scenes": [
    {
      "name": "Sketchfab_Scene",
      "nodes": [
        0
      ]
    }
  ]
}
